<?xml version="1.0" encoding="UTF-8"?>
<svg id="Layer_1" data-name="Layer 1" xmlns="http://www.w3.org/2000/svg" viewBox="0 0 492.26 547.4">
  <defs>
    <style>
      .cls-1 {
        fill: #231f20;
      }
    </style>
  </defs>
  <path class="cls-1" d="M440.41,332.06c-7.37-8.45-16.11-15.82-26.24-22.09-10.12-6.28-21.09-12.39-32.89-18.33-8-4.03-15.9-8.07-23.71-12.15-1.19-.61-2.37-1.23-3.55-1.85,2.21-1.83,4.36-3.73,6.45-5.69.92-.86,1.83-1.74,2.73-2.63,12.59-12.52,22.6-27.43,30.03-44.72,7.44-17.31,11.16-35.45,11.16-54.44l-.21-.44h.21c0-3.69-.13-7.33-.4-10.93-.32-4.34-.83-8.62-1.54-12.84,0-.06-.03-.13-.03-.19-.55-3.26-1.21-6.48-1.99-9.67-.27-1.07-.54-2.14-.83-3.2.68.35,1.36.71,2.03,1.09,3.28,1.82,6.45,3.9,9.5,6.26,2.74,2.1,5.39,4.41,7.94,6.94,15.23,15.06,22.85,33.23,22.85,54.48h24.34c0-22.26-10-41.21-30-56.87-6.79-5.31-14.05-9.73-21.79-13.25-3.05-1.39-6.17-2.65-9.37-3.76-2.54-.88-5.13-1.68-7.77-2.39-2.99-8.95-6.93-17.62-11.83-26.01-12.59-21.57-29.67-38.64-51.25-51.23-21.57-12.59-45.09-18.89-70.57-18.89-20.61,0-39.72,4.88-58.2,12.7-39.76,16.84-53.39,48.02-66.63,62.9l24.56.83c10.16-21.36,24.44-38.44,42.85-51.25,18.4-12.81,38.58-19.21,60.51-19.21s41.05,5.99,59.09,17.99c18.04,12,32.32,28.35,42.85,49.04,3.21,6.32,5.94,12.81,8.17,19.47-4.25-.41-8.6-.63-13.06-.66h-.26c-28.28.17-52.38,8.07-72.3,23.72-19.91,15.66-29.88,34.6-29.88,56.87,0,11.71,2.39,22.47,7.15,32.26,1.7,3.49,3.59,6.77,5.69,9.87,3.78,5.6,8.2,10.55,13.27,14.86.74.63,1.49,1.26,2.25,1.89,1.89,1.15,3.76,2.36,5.61,3.64,3.95,2.73,7.71,5.67,11.28,8.8h.01c2.53,1.69,5.14,3.35,7.83,5,4.27,2.61,8.58,5.09,12.92,7.43-.51.35-1.03.7-1.55,1.05-1.31.87-2.64,1.72-3.97,2.53-3.99,2.42-8.06,4.57-12.22,6.43-1.93.86-3.86,1.66-5.83,2.4-8.96,3.38-18.26,5.47-27.94,6.26l-22.19-57.35-2.71-7.03c-.39-.04.38.2-.01.17l-25.52-63.31-8.97-23.2c-3.03-7.85-7.65-15.01-13.69-20.88-.04-.04-.08-.08-.12-.11-.7-.68-1.41-1.34-2.14-1.99-.88-.79-1.77-1.55-2.68-2.29-15.29-12.46-35.32-18.69-60.07-18.69-15.57,0-29.67,2.3-42.31,6.91-12.63,4.6-22.72,10.67-30.25,18.2-7.53,7.53-12.92,16.11-16.19,25.73-3.26,9.62-3.89,19.54-1.88,29.74,2.01,9.88,6.68,19.05,14.05,27.5,7.36,8.45,16.11,15.82,26.24,22.09,10.12,6.28,21.08,12.39,32.89,18.33,7.99,4.03,15.9,8.07,23.7,12.15,1.19.61,2.37,1.23,3.55,1.85,1.07-.88,2.15-1.76,3.26-2.61l-1.38,3.59c-.63-.32-1.25-.65-1.88-.98-2.21,1.83-4.37,3.73-6.45,5.69-.92.86-1.83,1.74-2.72,2.63-12.59,12.52-22.6,27.43-30.04,44.72-7.44,17.31-11.15,35.45-11.15,54.44l.21.44h-.21c0,3.69.13,7.33.4,10.93.32,4.34.83,8.62,1.54,12.84,0,.06.02.13.03.19.54,3.26,1.21,6.48,1.99,9.67.27,1.07.54,2.14.83,3.2-.68-.35-1.36-.71-2.03-1.09-3.27-1.82-6.44-3.9-9.5-6.26-2.73-2.1-5.39-4.41-7.94-6.94-15.23-15.06-22.84-33.23-22.84-54.48h-24.35c0,22.26,10,41.21,30,56.87,6.79,5.31,14.05,9.73,21.79,13.25,3.04,1.39,6.17,2.65,9.37,3.76,2.54.88,5.13,1.68,7.77,2.39,2.99,8.95,6.93,17.62,11.83,26.01,12.59,21.57,29.67,38.64,51.24,51.23,21.57,12.59,45.1,18.89,70.57,18.89,20.61,0,40.23-3.76,58.19-12.7,31.45-15.65,54.66-48.12,67.92-63l-25.84-.73c-10.16,21.36-24.45,38.44-42.85,51.25-18.41,12.81-38.58,19.21-60.51,19.21s-41.05-5.99-59.08-17.99c-18.04-12-32.32-28.35-42.85-49.04-3.21-6.32-5.94-12.81-8.17-19.47,4.25.41,8.6.63,13.06.66h.25c28.28-.17,52.38-8.07,72.3-23.72,19.91-15.66,29.88-34.6,29.88-56.87,0-11.71-2.39-22.47-7.16-32.26-1.7-3.49-3.59-6.77-5.69-9.87-3.78-5.6-8.21-10.55-13.27-14.86-.74-.64-1.5-1.27-2.27-1.9-1.88-1.14-3.74-2.35-5.58-3.63-3.95-2.73-7.71-5.66-11.28-8.8,0,0,0,0-.01-.01-2.53-1.68-5.14-3.34-7.83-4.99-4.27-2.61-8.58-5.09-12.92-7.43.51-.35,1.03-.7,1.55-1.05,1.31-.87,2.63-1.71,3.96-2.53h0c4-2.43,8.07-4.57,12.22-6.43,1.93-.86,3.86-1.66,5.82-2.4,8.96-3.38,18.27-5.47,27.94-6.26l22.18,57.35,2.91,7.42c.39.04-.39-.03,0,0l25.34,62.76,8.97,23.2c3.03,7.85,7.65,15.01,13.69,20.88.04.04.08.08.12.11.7.68,1.41,1.34,2.14,1.99.88.79,1.77,1.55,2.68,2.29,15.29,12.46,35.32,18.69,60.07,18.69,15.57,0,29.67-2.3,42.3-6.91,12.64-4.6,22.72-10.67,30.25-18.2,7.54-7.53,12.93-16.11,16.19-25.73,3.26-9.62,3.89-19.54,1.88-29.74-2.01-9.88-6.69-19.05-14.05-27.5ZM183.93,293.14c.79.54,1.57,1.09,2.34,1.63.76.54,1.51,1.08,2.24,1.64,8.35,6.26,15.16,13.54,20.48,21.84,5.77,9.04,8.66,18.92,8.66,29.62.16,21.09-7.66,39.21-23.48,54.35-15.82,15.15-34.6,22.72-56.35,22.72-4.96,0-9.74-.39-14.35-1.18-3.6-11.9-5.67-24.33-6.19-37.27-.09-2.22-.13-4.44-.13-6.69h-.22l.22-.44c0-1.41.02-2.82.06-4.22.21-8.72,1.13-17.2,2.73-25.44,2.56-13.18,6.9-25.75,13-37.7,1.56-3.06,3.2-6.01,4.92-8.88,5.8-9.65,12.55-18.22,20.22-25.72,9.31,5.04,17.92,10.3,25.85,15.75ZM209.27,242.06c-4.74,1-9.43,2.25-14.07,3.76-3.97,1.29-7.91,2.77-11.8,4.44-2.87,1.22-5.68,2.52-8.42,3.89-3.35,1.67-6.6,3.45-9.76,5.33-1.92-.95-3.85-1.86-5.78-2.75-.71-.33-1.43-.66-2.15-.98-1.36-.61-2.12-.93-2.51-1.08.18.11.27.17.28.2-.1,0-1.19-.56-.28-.2,0,0-.01,0-.02-.01l-4.05-1.91c-8.69-4.02-17.31-8.38-25.82-13.09-10.3-5.69-19.5-11.3-27.62-16.82-8.11-5.52-14.86-12.34-20.21-20.46-5.35-8.12-8.37-16.95-9.03-26.48-1.17-15.9,4.93-30.75,18.32-44.57,13.38-13.81,30.54-20.05,51.47-18.7.18,0,.37.02.55.03,22.65,1.58,42.32,16.17,50.55,37.33l.66,1.69,3.26,8.54,9.39,24.24,2.11,5.47,10.64,27.49,8.67,22.38c-4.85.5-9.64,1.24-14.38,2.24ZM317.73,256.37c-.79-.54-1.57-1.09-2.34-1.63-.76-.54-1.51-1.08-2.24-1.64-8.35-6.26-15.17-13.54-20.48-21.84-5.77-9.04-8.66-18.92-8.66-29.62-.17-21.09,7.66-39.21,23.48-54.35,15.82-15.15,34.6-22.72,56.35-22.72,4.95,0,9.74.39,14.35,1.18,3.6,11.9,5.66,24.33,6.19,37.27.09,2.22.13,4.44.13,6.69h.21l-.21.44c0,1.41-.02,2.82-.06,4.22-.22,8.72-1.13,17.2-2.73,25.44-2.56,13.18-6.9,25.75-13,37.7-1.56,3.06-3.2,6.01-4.92,8.88-5.81,9.65-12.55,18.22-20.23,25.72-9.31-5.04-17.92-10.3-25.84-15.75ZM415.3,418.17c-13.38,13.81-30.55,20.05-51.47,18.7-.18,0-.37-.02-.55-.03-22.65-1.58-42.33-16.17-50.55-37.33l-.66-1.69-3.26-8.54-9.39-24.24-2.11-5.47-10.64-27.49-8.67-22.38c4.85-.5,9.64-1.24,14.38-2.24,4.75-1,9.44-2.25,14.07-3.76,3.98-1.29,7.91-2.77,11.8-4.44,2.87-1.22,5.68-2.52,8.42-3.89,3.35-1.67,6.61-3.45,9.76-5.33,1.92.95,3.84,1.86,5.78,2.75.71.33,1.43.66,2.15.98,1.33.59,2.08.92,2.48,1.07-.99-.61,1.24.49.01,0,0,0,.02.01.03.02l4.06,1.91c8.69,4.02,17.31,8.38,25.82,13.09,10.3,5.69,19.5,11.3,27.62,16.82,8.11,5.52,14.86,12.34,20.2,20.46,5.36,8.12,8.37,16.95,9.03,26.48,1.18,15.9-4.92,30.75-18.32,44.57Z"/>
</svg>